<!--?xml version="1.0" encoding="utf-8"?-->
<!-- Generator: Adobe Illustrator 18.0.0, SVG Export Plug-In . SVG Version: 6.00 Build 0)  -->

<svg version="1.1" id="_x32_" xmlns="http://www.w3.org/2000/svg" xmlns:xlink="http://www.w3.org/1999/xlink" x="0px" y="0px" viewBox="0 0 512 512" style="width: 256px; height: 256px; opacity: 1;" xml:space="preserve">
<style type="text/css">
	.st0{fill:#4B4B4B;}
</style>
<g>
	<path class="st0" d="M196.858,35.44c0-19.492-15.947-35.44-35.439-35.44c-19.49,0-35.438,15.947-35.438,35.44v83.531h70.877V35.44z
		" style="fill: rgb(75, 75, 75);"></path>
	<path class="st0" d="M386.017,35.44c0-19.492-15.945-35.44-35.438-35.44c-19.49,0-35.438,15.947-35.438,35.44v83.531h70.875V35.44z
		" style="fill: rgb(75, 75, 75);"></path>
	<path class="st0" d="M450.937,147.162H61.063c-3.654,0-6.644,2.988-6.644,6.645v44.961c0,3.656,2.99,6.644,6.644,6.644h29.379
		v29.127c0,78.965,56.033,145.467,130.301,161.74v89.516V512h26.205h44.308V396.279c74.268-16.273,130.299-82.775,130.299-161.74
		v-29.127h29.381c3.654,0,6.644-2.988,6.644-6.644v-44.961C457.581,150.15,454.591,147.162,450.937,147.162z M389.729,262.592
		c-9.217,21.7-22.392,41.203-39.164,57.973c-16.772,16.77-36.276,29.949-57.973,39.166c-2.15,0.914-4.387,1.346-6.586,1.346
		c-6.56,0-12.799-3.851-15.527-10.273c-3.641-8.57,0.356-18.469,8.926-22.113c17.697-7.516,33.615-18.274,47.312-31.971
		c13.697-13.697,24.455-29.615,31.972-47.31c3.641-8.574,13.541-12.57,22.114-8.928
		C389.376,244.123,393.372,254.022,389.729,262.592z" style="fill: rgb(75, 75, 75);"></path>
</g>
</svg>
