<?xml version="1.0" encoding="UTF-8" standalone="no"?>
<!-- Created with Inkscape (http://www.inkscape.org/) -->

<svg
   width="33.459221mm"
   height="25.146955mm"
   viewBox="0 0 33.459221 25.146956"
   version="1.1"
   id="svg5"
   inkscape:version="1.1.2 (b8e25be833, 2022-02-05)"
   sodipodi:docname="code-golf-logo.svg"
   xmlns:inkscape="http://www.inkscape.org/namespaces/inkscape"
   xmlns:sodipodi="http://sodipodi.sourceforge.net/DTD/sodipodi-0.dtd"
   xmlns="http://www.w3.org/2000/svg"
   xmlns:svg="http://www.w3.org/2000/svg">
  <sodipodi:namedview
     id="namedview7"
     pagecolor="#505050"
     bordercolor="#eeeeee"
     borderopacity="1"
     inkscape:pageshadow="0"
     inkscape:pageopacity="0"
     inkscape:pagecheckerboard="0"
     inkscape:document-units="mm"
     showgrid="false"
     inkscape:zoom="5.1241865"
     inkscape:cx="8.0012701"
     inkscape:cy="76.890254"
     inkscape:window-width="2560"
     inkscape:window-height="1369"
     inkscape:window-x="-8"
     inkscape:window-y="-8"
     inkscape:window-maximized="1"
     inkscape:current-layer="text23187"
     inkscape:snap-object-midpoints="true"
     showguides="true"
     inkscape:guide-bbox="true">
    <sodipodi:guide
       position="3.9899167,21.336956"
       orientation="1,0"
       id="guide839" />
  </sodipodi:namedview>
  <defs
     id="defs2">
    <rect
       x="0.58545882"
       y="1.7563764"
       width="173.29581"
       height="177.58917"
       id="rect23189" />
    <rect
       x="1.3660706"
       y="0.58545882"
       width="167.44122"
       height="161.58662"
       id="rect4757" />
    <rect
       x="2.5369883"
       y="1.3660706"
       width="163.73331"
       height="150.85323"
       id="rect33974" />
    <rect
       x="4.0982118"
       y="6.0497408"
       width="129.7767"
       height="107.72442"
       id="rect18492" />
    <rect
       x="14.831623"
       y="12.099482"
       width="211.9361"
       height="108.89534"
       id="rect3092" />
  </defs>
  <g
     inkscape:label="Layer 1"
     inkscape:groupmode="layer"
     id="layer1"
     transform="translate(-1.0069878,-2.2407417)">
    <g
       aria-label="ROOK CODE GOLF"
       transform="scale(0.26458333)"
       id="text23187"
       style="font-size:40px;line-height:1.25;font-family:'Rubik Mono One';-inkscape-font-specification:'Rubik Mono One, Normal';white-space:pre;shape-inside:url(#rect23189)">
      <path
         d="m 33.465938,35.628945 q 0.08,0.16 0.08,0.44 0,0.28 -0.28,0.56 -0.239999,0.24 -0.6,0.24 h -9.079999 q -1.200001,0 -1.680001,-1 l -3.52,-7.92 h -3.359999 v 7.84 q 0,0.44 -0.320001,0.76 -0.319999,0.32 -0.759999,0.32 H 5.3059375 q -0.44,0 -0.76,-0.32 -0.32,-0.32 -0.32,-0.76 v -25.84 q 0,-0.44 0.32,-0.76 0.32,-0.32 0.76,-0.32 H 20.865937 q 5.480001,0 8.68,2.6 3.200001,2.6 3.200001,7.08 0,5.44 -4.200001,7.88 z m -18.44,-19.32 v 4.24 h 4.999999 q 0.88,0 1.36,-0.56 0.48,-0.6 0.48,-1.48 0,-0.88 -0.48,-1.52 -0.44,-0.68 -1.36,-0.68 z"
         id="path29729" />
      <path
         d="m 64.465953,20.428945 v 4.88 q 0,4.12 -2,6.88 -2,2.76 -5.24,3.92 -3.24,1.16 -7.64,1.16 -4.4,0 -7.64,-1.16 -3.24,-1.16 -5.24,-3.92 -2,-2.76 -2,-6.96 v -4.72 q 0,-6.04 4.12,-9.04 4.16,-3 10.76,-3 6.6,0 10.72,3 4.16,3 4.16,8.96 z m -18.96,-0.76 v 6.4 q 0,1.64 1.08,2.52 1.12,0.88 3,0.88 1.88,0 2.96,-0.88 1.12,-0.92 1.12,-2.56 v -6.32 q 0,-1.64 -1.12,-2.52 -1.08,-0.92 -2.96,-0.92 -1.88,0 -3,0.88 -1.08,0.88 -1.08,2.52 z"
         id="path29731" />
      <path
         d="m 96.46597,20.428945 v 4.88 q 0,4.12 -2.000002,6.88 -2,2.76 -5.24,3.92 -3.24,1.16 -7.64,1.16 -4.4,0 -7.64,-1.16 -3.24,-1.16 -5.24,-3.92 -2,-2.76 -2,-6.96 v -4.72 q 0,-6.04 4.12,-9.04 4.16,-3 10.76,-3 6.6,0 10.72,3 4.160002,3 4.160002,8.96 z m -18.960002,-0.76 v 6.4 q 0,1.64 1.08,2.52 1.12,0.88 3,0.88 1.88,0 2.96,-0.88 1.12,-0.92 1.12,-2.56 v -6.32 q 0,-1.64 -1.12,-2.52 -1.08,-0.92 -2.96,-0.92 -1.88,0 -3,0.88 -1.08,0.88 -1.08,2.52 z"
         id="path29733" />
      <path
         d="m 130.10598,35.468945 q 0.16,0.24 0.16,0.56 0,0.32 -0.28,0.6 -0.24,0.24 -0.6,0.24 h -10.32 q -0.92,0 -1.44,-0.64 l -6.96,-8.6 v 8.16 q 0,0.44 -0.32,0.76 -0.32,0.32 -0.76,0.32 h -8.24 q -0.44,0 -0.76,-0.32 -0.32,-0.32 -0.32,-0.76 v -25.84 q 0,-0.44 0.32,-0.76 0.32,-0.32 0.76,-0.32 h 8.24 q 0.44,0 0.76,0.32 0.32,0.32 0.32,0.76 v 7.52 l 6.32,-7.92 q 0.6,-0.68 1.48,-0.68 h 9.64 q 0.36,0 0.6,0.28 0.28,0.24 0.28,0.6 0,0.32 -0.2,0.56 l -9.48,11.56 z"
         id="path29735" />
      <path
         d="m 14.865938,52.498027 v 6.4 q 0,1.64 1.079999,2.52 1.12,0.88 2.88,0.88 1.800001,0 2.6,-0.56 0.8,-0.56 1.320001,-1.64 0.56,-1.08 1.439999,-1.08 h 8.64 q 0.36,0 0.600001,0.28 0.28,0.24 0.28,0.6 0,3.72 -3.520001,6.8 -1.759999,1.52 -4.68,2.48 -2.92,0.92 -6.88,0.92 -3.959999,0 -7.239999,-1.2 -3.2400003,-1.24 -5.2800003,-4 -2.04,-2.8 -2.04,-6.84 v -4.72 q 0,-4.04 2.04,-6.84 3.8399997,-5.2 12.8399993,-5.2 3.64,0 6.56,0.96 2.920001,0.92 4.68,2.44 3.520001,3.08 3.520001,6.8 0,0.36 -0.28,0.64 -0.240001,0.24 -0.600001,0.24 h -8.64 q -0.879999,0 -1.439999,-1.08 -0.520001,-1.08 -1.320001,-1.64 -0.799999,-0.56 -2.6,-0.56 -1.76,0 -2.88,0.88 -1.079999,0.88 -1.079999,2.52 z"
         id="path29737" />
      <path
         d="m 65.425953,53.258027 v 4.88 q 0,4.12 -2,6.88 -2,2.76 -5.24,3.92 -3.24,1.16 -7.64,1.16 -4.4,0 -7.64,-1.16 -3.24,-1.16 -5.24,-3.92 -2,-2.76 -2,-6.96 v -4.72 q 0,-6.04 4.12,-9.04 4.16,-3 10.76,-3 6.6,0 10.72,3 4.16,3 4.16,8.96 z m -18.96,-0.76 v 6.4 q 0,1.64 1.08,2.52 1.12,0.88 3,0.88 1.88,0 2.96,-0.88 1.12,-0.92 1.12,-2.56 v -6.32 q 0,-1.64 -1.12,-2.52 -1.08,-0.92 -2.96,-0.92 -1.88,0 -3,0.88 -1.08,0.88 -1.08,2.52 z"
         id="path29739" />
      <path
         d="m 69.665968,41.698027 h 12.76 q 4.4,0 7.640002,1.16 3.24,1.16 5.24,3.92 2,2.76 2,6.88 v 4.08 q 0,6.4 -4.32,9.32 -3.96,2.64 -10.560002,2.64 h -12.76 q -0.44,0 -0.76,-0.32 -0.32,-0.32 -0.32,-0.76 v -25.84 q 0,-0.44 0.32,-0.76 0.32,-0.32 0.76,-0.32 z m 9.32,7.8 v 12.4 h 3.64 q 1.88,0 2.96,-0.88 1.12,-0.92 1.12,-2.56 v -5.52 q 0,-1.64 -1.12,-2.52 -1.08,-0.92 -2.96,-0.92 z"
         id="path29741" />
      <path
         d="m 111.54596,61.898027 h 15.96 q 0.44,0 0.76,0.32 0.32,0.32 0.32,0.76 v 5.64 q 0,0.44 -0.32,0.76 -0.32,0.32 -0.76,0.32 h -25.28 q -0.44,0 -0.76,-0.32 -0.32,-0.32 -0.32,-0.76 v -25.84 q 0,-0.44 0.32,-0.76 0.32,-0.32 0.76,-0.32 h 24.88 q 0.44,0 0.76,0.32 0.32,0.32 0.32,0.76 v 5.64 q 0,0.44 -0.32,0.76 -0.32,0.32 -0.76,0.32 h -15.56 v 2.52 h 13.36 q 0.44,0 0.76,0.32 0.32,0.32 0.32,0.76 v 5.2 q 0,0.44 -0.32,0.76 -0.32,0.32 -0.76,0.32 h -13.36 z"
         id="path29743" />
      <path
         d="m 21.285937,86.232563 h 11.600001 q 0.44,0 0.76,0.32 0.32,0.32 0.32,0.76 v 4.24 q 0,6.08 -4.160001,9.039997 -4.12,2.92 -10.92,2.92 -6.799999,0 -10.9599989,-2.92 -4.12,-2.959997 -4.12,-9.119997 v -4.72 q 0,-3.08 1.16,-5.44 1.2,-2.36 3.32,-3.8 4.1599999,-2.8 10.5999989,-2.8 3.200001,0 5.84,0.76 2.680001,0.72 4.240001,1.84 1.599999,1.08 2.719999,2.36 1.960001,2.24 1.960001,3.96 0,0.36 -0.28,0.64 -0.240001,0.24 -0.600001,0.24 h -9.039999 q -0.8,0 -1.16,-0.44 -1.240001,-1.56 -3.400001,-1.56 -2.119999,0 -3.359999,0.84 -1.2,0.84 -1.2,2.16 v 6.8 q 0,1.6 1.2,2.52 1.199999,0.88 3.359999,0.88 2.2,0 3.36,-0.84 1.200001,-0.88 1.24,-2.04 h -2.48 q -0.44,0 -0.759999,-0.32 -0.32,-0.32 -0.32,-0.76 v -4.44 q 0,-0.44 0.32,-0.76 0.319999,-0.32 0.759999,-0.32 z"
         id="path29745" />
      <path
         d="m 65.365953,86.672563 v 4.88 q 0,4.12 -2,6.88 -2,2.759997 -5.24,3.919997 -3.24,1.16 -7.64,1.16 -4.4,0 -7.64,-1.16 -3.24,-1.16 -5.24,-3.919997 -2,-2.76 -2,-6.96 v -4.72 q 0,-6.04 4.12,-9.04 4.16,-3 10.76,-3 6.6,0 10.72,3 4.16,3 4.16,8.96 z m -18.96,-0.76 v 6.4 q 0,1.64 1.08,2.52 1.12,0.88 3,0.88 1.88,0 2.96,-0.88 1.12,-0.92 1.12,-2.56 v -6.32 q 0,-1.64 -1.12,-2.52 -1.08,-0.92 -2.96,-0.92 -1.88,0 -3,0.88 -1.08,0.88 -1.08,2.52 z"
         id="path29747" />
      <path
         d="m 81.88597,94.912563 h 13.639979 q 0.44,0 0.76,0.32 0.32,0.32 0.32,0.76 v 6.039997 q 0,0.44 -0.32,0.76 -0.32,0.32 -0.76,0.32 H 72.165968 q -0.44,0 -0.76,-0.32 -0.32,-0.32 -0.32,-0.76 V 76.192563 q 0,-0.44 0.32,-0.76 0.32,-0.32 0.76,-0.32 h 8.640002 q 0.44,0 0.76,0.32 0.32,0.32 0.32,0.76 z"
         id="path29749" />
      <path
         d="m 102.56596,75.112563 h 25.44 q 0.44,0 0.76,0.32 0.32,0.32 0.32,0.76 v 6.08 q 0,0.44 -0.32,0.76 -0.32,0.32 -0.76,0.32 h -15.72 v 2.56 h 13.12 q 0.44,0 0.76,0.32 0.32,0.32 0.32,0.76 v 6.04 q 0,0.44 -0.32,0.76 -0.32,0.32 -0.76,0.32 h -13.12 v 7.919997 q 0,0.44 -0.32,0.76 -0.32,0.32 -0.76,0.32 h -8.64 q -0.44,0 -0.76,-0.32 -0.32,-0.32 -0.32,-0.76 V 76.192563 q 0,-0.44 0.32,-0.76 0.32,-0.32 0.76,-0.32 z"
         id="path29751" />
    </g>
  </g>
</svg>
