<?xml version="1.0" encoding="UTF-8"?>
<svg xmlns="http://www.w3.org/2000/svg" width="80" height="39.803" viewBox="0 0 80 39.803">
  <path d="M810.135,462.2l-3.283,3.632V478.8H797V439h9.852v19.052L824.783,439h11.034L817.95,457.6,837,478.8H824.941ZM785.374,478.8H797l-15.1-16.78c4.833-2.55,8.4-7.434,8.4-12.185,0-6.855-6.439-10.837-14.384-10.837H757v39.8h9.852V463.828H772.8Zm-13.6-28.177a4.926,4.926,0,1,1-4.926-4.926A4.925,4.925,0,0,1,771.778,450.626Zm11.429,0a4.926,4.926,0,1,1-4.926-4.926A4.925,4.925,0,0,1,783.207,450.626Z" transform="translate(-757 -439)"></path>
</svg>
